<svg id="No_Commitment" data-name="No Commitment" xmlns="http://www.w3.org/2000/svg" width="18" height="18" viewBox="0 0 18 18">
  <defs>
    <style>
      .cls-1, .cls-4 {
        fill: #422e7d;
      }

      .cls-2 {
        fill: #fff;
        stroke-width: 0.5px;
      }

      .cls-2, .cls-3 {
        stroke: #422e7d;
      }

      .cls-2, .cls-3, .cls-4 {
        stroke-linecap: round;
        stroke-linejoin: round;
      }

      .cls-3 {
        fill: none;
        stroke-width: 0.2px;
      }

      .cls-4 {
        stroke: #f06b60;
        stroke-width: 2px;
      }
    </style>
  </defs>
  <g id="Layer_2" data-name="Layer 2">
    <circle class="cls-1" cx="9" cy="9" r="9"/>
  </g>
  <g id="Layer_1" data-name="Layer 1">
    <g>
      <path class="cls-2" d="M14.41,15.39H7.51c-1.59,0-3.92,0-3.92-2.34V2.76a.15.15,0,0,1,.15-.15h9a.15.15,0,0,1,.15.15s0,8.54,0,10A4.15,4.15,0,0,0,14.41,15.39Z" transform="translate(0 0)"/>
      <line class="cls-3" x1="6.3" y1="4.82" x2="10.34" y2="4.82"/>
      <line class="cls-3" x1="5.13" y1="6.11" x2="11.51" y2="6.11"/>
      <line class="cls-3" x1="5.07" y1="7.45" x2="11.46" y2="7.45"/>
      <line class="cls-3" x1="5.13" y1="8.11" x2="9.3" y2="8.11"/>
      <line class="cls-3" x1="8.32" y1="6.78" x2="11.51" y2="6.78"/>
      <line class="cls-3" x1="9.92" y1="8.11" x2="11.51" y2="8.11"/>
      <line class="cls-3" x1="5.13" y1="8.78" x2="11.51" y2="8.78"/>
      <line class="cls-3" x1="5.07" y1="10.12" x2="11.46" y2="10.12"/>
      <line class="cls-3" x1="5.13" y1="9.45" x2="7.71" y2="9.45"/>
      <line class="cls-3" x1="5.13" y1="10.79" x2="9.3" y2="10.79"/>
      <line class="cls-3" x1="8.32" y1="9.45" x2="11.51" y2="9.45"/>
      <line class="cls-3" x1="5.07" y1="12.12" x2="11.46" y2="12.12"/>
      <line class="cls-3" x1="5.13" y1="11.45" x2="7.71" y2="11.45"/>
      <line class="cls-3" x1="5.13" y1="12.79" x2="9.3" y2="12.79"/>
    </g>
  </g>
  <g id="Layer_3" data-name="Layer 3">
    <line class="cls-4" x1="2.64" y1="15.36" x2="1.96" y2="16.04"/>
    <line class="cls-4" x1="16.04" y1="1.96" x2="15.36" y2="2.64"/>
  </g>
</svg>
