<svg id="Layer_10" data-name="Layer 10" xmlns="http://www.w3.org/2000/svg" viewBox="0 0 2250 559.16">
  <defs>
    <style>
      .cls-1, .cls-2, .cls-3 {
        fill: #412d7c;
      }

      .cls-2, .cls-3, .cls-4, .cls-5 {
        stroke: #412d7c;
      }

      .cls-2, .cls-5 {
        stroke-miterlimit: 10;
        stroke-width: 20px;
      }

      .cls-3, .cls-4 {
        stroke-linejoin: round;
        stroke-width: 14px;
      }

      .cls-4 {
        fill: #ee6b60;
      }

      .cls-5 {
        fill: none;
      }
    </style>
  </defs>
  <g>
    <path class="cls-1" d="M375,1770.21V1220.42H586.06q56.82,0,100.73,19.93t69,59q25.08,39.12,25.09,96.67,0,56.1-25.46,95.2t-69.37,59.41q-43.92,20.3-100,20.29H489.39v199.25Zm114.39-298.88H586.8q24.35,0,42.06-9.59a70,70,0,0,0,27.68-26.57q10-17,10-39.11,0-22.86-10-39.85a70.23,70.23,0,0,0-27.68-26.57q-17.7-9.59-42.06-9.59H489.39Z" transform="translate(-375 -1220.42)"/>
    <path class="cls-1" d="M1309.41,1770.21v-426h109.24v102.21l-7.8-14.82q14-53.85,46.42-73t76.86-19.11h25V1441h-36.67q-42.92,0-69.44,26.14t-26.53,73.73v229.39Z" transform="translate(-375 -1220.42)"/>
    <path class="cls-1" d="M1739.82,1779.58q-70.23,0-122.11-33.16t-70.62-89.34l85.83-40.57q16.39,34.34,44.48,53.83a106.89,106.89,0,0,0,62.42,19.51q25,0,38.23-10.14t13.26-28.09a27,27,0,0,0-4.68-16q-4.68-6.61-14-12.09a100.2,100.2,0,0,0-23.41-9.37l-72.56-20.28q-52.29-14.82-80.37-48t-28.09-78.41q0-39.8,20.29-69.44t57-46.43q36.66-16.77,84.26-16.78,62.41,0,109.63,29.26t66.71,82.32L1819.4,1487q-9.36-26.51-33.94-42.52t-55.79-16q-22.64,0-35.5,9.36t-12.87,25.75a27.49,27.49,0,0,0,4.68,15.6q4.68,7,15.21,12.49a152.85,152.85,0,0,0,26.14,10.14l67.88,20.28q53.05,15.63,81.15,47.21t28.09,77.64q0,39.78-20.68,69.44t-57.35,46.42Q1789.75,1779.57,1739.82,1779.58Z" transform="translate(-375 -1220.42)"/>
    <path class="cls-1" d="M2125.06,1779.58q-67.89,0-117.82-30T1930,1668.78q-27.33-50.71-27.31-112.35,0-64,28.48-113.92T2008,1363.7q48.38-28.85,109.24-28.87,50.7,0,89.73,16t65.93,44.86a197.64,197.64,0,0,1,41,66.72q14,37.85,14,82.31,0,12.49-1.17,24.58a84.84,84.84,0,0,1-4.29,20.68H2003.34v-85.83h252.8l-55.4,40.57q7.8-33.54-.78-59.69t-30-41.35q-21.47-15.21-52.66-15.21-30.44,0-52.28,14.82T2032.21,1487q-10.93,28.88-8.58,70.23-3.14,35.89,8.58,63.2t35.89,42.52q24.18,15.21,58.52,15.21,31.2,0,53.45-12.48a89.84,89.84,0,0,0,34.72-34.33l93.63,44.47q-12.49,31.21-39.4,54.62t-63.59,36.28Q2168.74,1779.59,2125.06,1779.58Z" transform="translate(-375 -1220.42)"/>
    <path class="cls-1" d="M2422.14,1779.58q-67.89,0-117.82-30t-77.25-80.76q-27.32-50.71-27.31-112.35,0-64,28.48-113.92t76.86-78.81q48.36-28.85,109.23-28.87,50.72,0,89.73,16t65.93,44.86a197.66,197.66,0,0,1,41,66.72q14,37.85,14,82.31,0,12.49-1.17,24.58a85.31,85.31,0,0,1-4.29,20.68H2300.42v-85.83h252.8l-55.4,40.57q7.79-33.54-.78-59.69t-30-41.35q-21.47-15.21-52.67-15.21-30.42,0-52.27,14.82T2329.29,1487q-11,28.88-8.59,70.23-3.12,35.89,8.59,63.2t35.89,42.52q24.17,15.21,58.52,15.21,31.18,0,53.44-12.48a89.71,89.71,0,0,0,34.72-34.33l93.63,44.47q-12.48,31.21-39.4,54.62t-63.59,36.28Q2465.81,1779.59,2422.14,1779.58Z" transform="translate(-375 -1220.42)"/>
    <g>
      <path class="cls-1" d="M1191.32,1638.61a221.81,221.81,0,0,1-40,65.59c-.88,1-1.76,2-2.67,3a221.54,221.54,0,0,1-55.79,44.14c-1.24.7-2.49,1.38-3.74,2l-.67.35q-6.24,3.3-12.66,6.19a222.51,222.51,0,0,1-34,12.12q-6.54,1.76-13.21,3.11l-2.44.49a221.45,221.45,0,0,1-123-11.53c-3.7-1.45-7.33-3-10.91-4.62a221.28,221.28,0,0,1-101.17-92.74q-1.12-2-2.2-4s35.9-18.35,75.09-38.55c53-27.29,111.93-58,96.61-51.27-5.46,2.38-1.25-5.3-4.23-4-109.94,46-171.07,62.25-180.59,64.67a221.42,221.42,0,0,1,1.92-157.65c44.93-114.23,174-170.41,288.19-125.48l-81.35,206.84Z" transform="translate(-375 -1220.42)"/>
      <path class="cls-2" d="M982,1562.55q-23.19,10.11-46.67,19.57" transform="translate(-375 -1220.42)"/>
      <path class="cls-2" d="M774.74,1633.79l-.07,0-.24.06C738,1642.25,706.7,1648,705,1645.76c0-2.07,31.57-24.38,61.56-44.83,24.16-16.46,47.29-31.71,52.09-34.22,17.78-8.88,35.08-17.77,52.86-26.66l12.62-5.61c29.94-15,59.87-28.06,90.27-42.09,2.34-.94,4.21-1.41,6.55-2.34,12.12-5.39,12.6-5.64,24.63-10.67" transform="translate(-375 -1220.42)"/>
      <path class="cls-3" d="M1287,1397.05c-3.77,10.17-31.06,29.7-74.15,54.23a223.75,223.75,0,0,0-25-41.23c57.69-18.45,95.52-25.55,99.32-16.82C1287.12,1393.23,1287.13,1394.58,1287,1397.05Z" transform="translate(-375 -1220.42)"/>
      <path class="cls-4" d="M1232.43,1520.67a221.25,221.25,0,0,1-14.08,106.17l-95.67-37.63-111.16-43.72,32.29-82.12,49.06-124.72a221.26,221.26,0,0,1,94.93,71.4,223.75,223.75,0,0,1,25,41.23c43.09-24.53,70.38-44.06,74.15-54.23C1286.12,1412.12,1279.69,1469.15,1232.43,1520.67Z" transform="translate(-375 -1220.42)"/>
      <path class="cls-5" d="M791.05,1666.73s35-20.37,72.89-42.53c23.71-13.89,48.54-28.48,66.54-39.2,17.7-10.55,28.82-17.37,25.85-16.12-110,46-171.08,62.25-180.6,64.67l-1.32.32" transform="translate(-375 -1220.42)"/>
    </g>
  </g>
</svg>
