<svg id="Layer_1" data-name="Layer 1" xmlns="http://www.w3.org/2000/svg" width="2250" height="559.16" viewBox="0 0 2250 559.16">
  <defs>
    <style>
      .cls-1, .cls-3, .cls-4 {
        fill: #f5f1ff;
      }

      .cls-2 {
        fill: #402d7c;
      }

      .cls-2, .cls-3, .cls-4, .cls-5, .cls-6 {
        stroke: #f5f1ff;
      }

      .cls-2, .cls-3, .cls-6 {
        stroke-miterlimit: 10;
        stroke-width: 20px;
      }

      .cls-4, .cls-5 {
        stroke-linejoin: round;
        stroke-width: 14px;
      }

      .cls-5 {
        fill: #ed6a5f;
      }

      .cls-6 {
        fill: none;
      }
    </style>
  </defs>
  <g>
    <path class="cls-1" d="M45.44,809.38V259.59H256.5q56.82,0,100.73,19.93t69,59q25.08,39.12,25.09,96.67,0,56.08-25.46,95.2T356.5,589.84q-43.92,20.29-100,20.29H159.83V809.38ZM159.83,510.5h97.41q24.35,0,42.06-9.59A70,70,0,0,0,327,474.34q10-17,10-39.11,0-22.86-10-39.85a70.23,70.23,0,0,0-27.68-26.57q-17.7-9.58-42.06-9.59H159.83Z" transform="translate(-45.44 -259.59)"/>
    <path class="cls-1" d="M979.85,809.38v-426h109.24V485.58l-7.8-14.82q14-53.85,46.42-73t76.86-19.11h25V480.12h-36.67q-42.91,0-69.44,26.14T1096.89,580V809.38Z" transform="translate(-45.44 -259.59)"/>
    <path class="cls-1" d="M1410.26,818.75q-70.23,0-122.11-33.16t-70.62-89.34l85.83-40.58q16.4,34.35,44.48,53.84A106.89,106.89,0,0,0,1410.26,729q25,0,38.23-10.15t13.26-28.08a27,27,0,0,0-4.68-16q-4.68-6.62-14-12.09a100.2,100.2,0,0,0-23.41-9.37l-72.56-20.28q-52.29-14.82-80.37-48t-28.09-78.41q0-39.79,20.29-69.44t57-46.43Q1352.51,374,1400.11,374q62.42,0,109.63,29.26t66.71,82.32l-86.61,40.57q-9.36-26.5-33.94-42.52t-55.79-16q-22.63,0-35.5,9.37t-12.87,25.75a27.49,27.49,0,0,0,4.68,15.6q4.68,7,15.21,12.48A152,152,0,0,0,1397.77,541l67.88,20.28q53.05,15.63,81.15,47.21t28.09,77.63q0,39.79-20.68,69.45T1496.86,802Q1460.19,818.74,1410.26,818.75Z" transform="translate(-45.44 -259.59)"/>
    <path class="cls-1" d="M1795.5,818.75q-67.89,0-117.82-30T1600.44,708q-27.33-50.72-27.31-112.35,0-64,28.48-113.92t76.85-78.81Q1726.84,374,1787.7,374q50.7,0,89.73,16t65.93,44.86a197.64,197.64,0,0,1,41,66.72q14,37.84,14,82.31,0,12.5-1.17,24.58a84.84,84.84,0,0,1-4.29,20.68H1673.78V543.32h252.8l-55.4,40.57q7.8-33.54-.78-59.69t-30-41.35q-21.46-15.21-52.66-15.22-30.43,0-52.28,14.83t-32.77,43.69q-10.94,28.88-8.58,70.23-3.13,35.89,8.58,63.2t35.89,42.52q24.18,15.21,58.52,15.21,31.2,0,53.45-12.48a89.84,89.84,0,0,0,34.72-34.33L1978.86,715q-12.49,31.21-39.4,54.62t-63.59,36.28Q1839.18,818.74,1795.5,818.75Z" transform="translate(-45.44 -259.59)"/>
    <path class="cls-1" d="M2092.58,818.75q-67.89,0-117.82-30T1897.51,708q-27.32-50.72-27.31-112.35,0-64,28.48-113.92t76.86-78.81Q2023.9,374,2084.77,374q50.71,0,89.73,16t65.93,44.86a197.66,197.66,0,0,1,41,66.72q14,37.84,14,82.31,0,12.5-1.17,24.58a85.31,85.31,0,0,1-4.29,20.68H1970.86V543.32h252.8l-55.4,40.57q7.78-33.54-.78-59.69t-30-41.35q-21.46-15.21-52.67-15.22-30.42,0-52.27,14.83t-32.77,43.69q-10.95,28.88-8.59,70.23-3.12,35.89,8.59,63.2t35.89,42.52q24.16,15.21,58.52,15.21,31.18,0,53.44-12.48a89.71,89.71,0,0,0,34.72-34.33L2275.93,715q-12.48,31.21-39.4,54.62t-63.59,36.28Q2136.25,818.74,2092.58,818.75Z" transform="translate(-45.44 -259.59)"/>
    <g>
      <path class="cls-1" d="M861.76,677.78a221.81,221.81,0,0,1-40,65.59c-.88,1-1.76,2-2.67,3a221.54,221.54,0,0,1-55.79,44.14c-1.24.7-2.49,1.38-3.74,2l-.67.35q-6.24,3.3-12.66,6.19a222.51,222.51,0,0,1-34,12.12q-6.54,1.75-13.21,3.11l-2.44.49a221.45,221.45,0,0,1-123-11.53c-3.7-1.45-7.33-3-10.91-4.62A221.5,221.5,0,0,1,461.49,705.9q-1.12-2-2.2-4s35.9-18.35,75.09-38.55c53-27.29,111.93-58,96.61-51.27-5.46,2.38-1.25-5.3-4.23-4.05-109.94,46-171.07,62.25-180.59,64.67a221.42,221.42,0,0,1,1.92-157.65c44.93-114.23,174-170.42,288.19-125.48L654.93,596.43Z" transform="translate(-45.44 -259.59)"/>
      <path class="cls-2" d="M652.42,601.72q-23.19,10.11-46.67,19.56" transform="translate(-45.44 -259.59)"/>
      <path class="cls-3" d="M445.18,673l-.07,0-.24.06c-36.41,8.38-67.73,14.11-69.46,11.89,0-2.07,31.57-24.38,61.56-44.83,24.16-16.46,47.29-31.72,52.09-34.22,17.78-8.88,35.08-17.77,52.86-26.66l12.62-5.61c29.94-15,59.87-28.06,90.27-42.1,2.34-.93,4.21-1.4,6.55-2.33,12.12-5.39,12.6-5.64,24.63-10.67" transform="translate(-45.44 -259.59)"/>
      <path class="cls-4" d="M957.42,436.22c-3.77,10.16-31.06,29.7-74.15,54.23a223.75,223.75,0,0,0-25-41.23c57.69-18.45,95.52-25.55,99.32-16.82C957.56,432.4,957.57,433.75,957.42,436.22Z" transform="translate(-45.44 -259.59)"/>
      <path class="cls-5" d="M902.87,559.84A221.25,221.25,0,0,1,888.79,666l-95.67-37.63L682,584.66l32.29-82.12,49.06-124.72a221.26,221.26,0,0,1,94.93,71.4,223.75,223.75,0,0,1,25,41.23c43.09-24.53,70.38-44.07,74.15-54.23C956.56,451.29,950.13,508.32,902.87,559.84Z" transform="translate(-45.44 -259.59)"/>
      <path class="cls-6" d="M461.49,705.9s35-20.37,72.89-42.53c23.71-13.89,48.54-28.48,66.54-39.2,17.7-10.55,28.82-17.37,25.85-16.12-109.95,46-171.08,62.25-180.6,64.67l-1.32.32" transform="translate(-45.44 -259.59)"/>
    </g>
  </g>
</svg>
